# xmcd
#
# Track frame offsets:
# 150
# 14321
# 26210
# 38136
# 48943
# 61818
# 75239
# 86694
# 101417
# 113082
# 125314
# 137288
# 148607
# 160056
# 171442
# 184686
# 195369
# 207624
# 220634
# 230431
# 240699
# 255168
# 268110
# 281700
# 295930
#
# Disc length: 4075 seconds
#
#
# Revision: 0
# Processed by: cddbd v1.5.2PL0 Copyright (c) Steve Scherf et al.
# Submitted via: FreeRIP 2.945 
#
DISCID=560fe919
DTITLE=Frankie Laine - I Belief
DYEAR=2005
DGENRE=Country
TTITLE0=Jezebel
TTITLE1=High Noon (Do Not Forsake Me)
TTITLE2=Answer Me
TTITLE3=Your Cheatin' Heart
TTITLE4=When You're Smiling
TTITLE5=That Lucky Old Sun
TTITLE6=Rose, Rose I Love You
TTITLE7=A Hunderd Years From Today
TTITLE8=West End Blues
TTITLE9=That's How Rhythm Was Born
TTITLE10=Rock Of Gibraltar
TTITLE11=I Let Her Go
TTITLE12=Long Distance Love
TTITLE13=Where The Wind Blows
TTITLE14=Granada
TTITLE15=Love Is Such A Cheat
TTITLE16=She Remind Me Of You
TTITLE17=Rain Rain Rain
TTITLE18=Flamengo
TTITLE19=Hey Joe
TTITLE20=Te Amo
TTITLE21=May The Good Lord Bless And Keep You
TTITLE22=I'm Gonna Live Till I ie
TTITLE23=Jealousy
TTITLE24=I Believe
EXTD=5051035100321\n
EXTT0=
EXTT1=
EXTT2=
EXTT3=
EXTT4=
EXTT5=
EXTT6=
EXTT7=
EXTT8=
EXTT9=
EXTT10=
EXTT11=
EXTT12=
EXTT13=
EXTT14=
EXTT15=
EXTT16=
EXTT17=
EXTT18=
EXTT19=
EXTT20=
EXTT21=
EXTT22=
EXTT23=
EXTT24=
PLAYORDER=
